<?xml version="1.0" encoding="utf-8"?>
<!-- Generator: Adobe Illustrator 23.0.5, SVG Export Plug-In . SVG Version: 6.00 Build 0)  -->
<svg version="1.1" id="Layer_1" xmlns="http://www.w3.org/2000/svg" xmlns:xlink="http://www.w3.org/1999/xlink" x="0px" y="0px"
	 viewBox="0 0 109.7 308.2" style="enable-background:new 0 0 109.7 308.2;" xml:space="preserve">
<style type="text/css">
	.st0{opacity:0.43;fill:#898989;}
	.st1{fill:#282828;}
	.st2{fill:#632919;}
	.st3{fill:#404052;}
	.st4{fill:#897C63;}
	.st5{opacity:0.14;fill:#FFFFFF;}
	.st6{fill:#FBD1A9;}
	.st7{fill:#7A3C2D;}
	.st8{fill:#D48E6E;}
	.st9{clip-path:url(#SVGID_2_);fill:#DDAA84;}
	.st10{clip-path:url(#SVGID_2_);fill:#D48E6E;}
	.st11{fill:#DDAA84;}
	.st12{clip-path:url(#SVGID_4_);fill:#D48E6E;}
	.st13{fill:#B16F55;}
	.st14{fill:#4C3B36;}
	.st15{fill:url(#SVGID_5_);}
	.st16{fill:#23170C;}
	.st17{fill:#FFFFFF;}
	.st18{clip-path:url(#SVGID_7_);}
	.st19{fill:#433029;}
	.st20{fill:#42210B;}
	.st21{clip-path:url(#SVGID_7_);fill:#212121;}
	.st22{opacity:0.21;clip-path:url(#SVGID_7_);fill:#333333;}
	.st23{clip-path:url(#SVGID_9_);}
	.st24{clip-path:url(#SVGID_9_);fill:#212121;}
	.st25{opacity:0.21;clip-path:url(#SVGID_9_);fill:#333333;}
	.st26{fill:#6B3725;}
	.st27{fill:#A26953;}
	.st28{fill:#60463B;}
	.st29{fill:#96735F;}
	.st30{fill:#B6795C;}
	.st31{clip-path:url(#cl_mask_2_);fill:#969597;}
	.st32{opacity:0.6;clip-path:url(#cl_mask_2_);fill:#CBC9D1;}
	.st33{opacity:0.6;clip-path:url(#cl_mask_2_);fill:#B4ADB1;}
	.st34{fill:#47352D;}
	.st35{fill:#2F2F3F;}
	.st36{opacity:0.43;fill:#282828;}
	.st37{fill:none;stroke:#282828;stroke-width:5;stroke-miterlimit:10;}
	.st38{fill:#FBD1A9;stroke:#D48E6E;stroke-width:0.5;stroke-miterlimit:10;}
</style>
<g>
	<ellipse class="st0" cx="54.8" cy="304" rx="54.8" ry="4.2"/>
	<g>
		<path class="st1" d="M51.9,298.7l0.2,1.6c0.1,0.4-0.3,0.8-0.7,0.8l-10.8,0.5v-1.1c0,0-2.7,1.3-3.6,1.6c-0.9,0.2-4.2,0.2-4.2,0.2
			l-21.2-0.7c0,0-0.7-0.1-1.1-0.6c-0.6-0.8-0.6-1.5-0.6-1.5l24.6-2.1h13.3L51.9,298.7z"/>
		<path class="st1" d="M33,302.6c-0.1,0-0.1,0-0.1,0l-21.2-0.7c0,0-0.8-0.1-1.3-0.7c-0.7-0.8-0.7-1.6-0.7-1.7v-0.2l24.8-2.1l13.3,0
			l4.3,1.3l0.2,1.8c0.1,0.6-0.3,1.1-0.9,1.1l-11.1,0.5v-0.9c-0.8,0.4-2.5,1.2-3.3,1.4C36.3,302.6,33.6,302.6,33,302.6z M10.2,299.7
			c0,0.3,0.2,0.7,0.5,1.1c0.4,0.5,0.9,0.5,1,0.5l21.1,0.7c0,0,3.3,0,4.1-0.2c0.8-0.2,3.5-1.5,3.5-1.5l0.4-0.2v1.2l11-0.5l-0.3-2
			l-3.9-1.2H34.5L10.2,299.7z"/>
	</g>
	<g>
		<path class="st2" d="M9.9,299.5c0,0-0.2-2.8,0.6-3.4c2.2-1.7,5.5-1,12.6-4.4c4.2-2,5.3-4.9,5.3-4.9s5,2.6,11.1,3.9
			c3.8,0.8,12.4,2,12.4,2v6l-14.9,0.1c0,0-2.2,1.7-4.7,1.7C13.8,300.8,9.9,299.5,9.9,299.5z"/>
		<path class="st1" d="M27,300.8c-13.8,0-17-1-17.2-1.1l-0.2-0.1l0-0.2c0-0.3-0.2-2.9,0.7-3.6c1-0.8,2.3-1.1,4-1.5
			c2-0.5,4.8-1.1,8.7-3c4.1-2,5.1-4.7,5.2-4.8l0.1-0.3l0.3,0.1c0,0,5,2.6,11,3.9c3.8,0.8,12.3,2,12.3,2l0.2,0v6.5L37,299
			c-0.4,0.3-2.4,1.7-4.7,1.7C30.4,300.8,28.6,300.8,27,300.8z M10.2,299.3c0.9,0.2,5.9,1.2,22.1,0.9c2.4,0,4.5-1.6,4.5-1.7l0.1,0
			l0.1,0l14.7-0.1v-5.6c-1.4-0.2-8.7-1.2-12.2-2c-5.3-1.1-9.8-3.3-10.9-3.8c-0.4,0.8-1.7,3-5.3,4.8c-3.9,1.9-6.8,2.6-8.8,3
			c-1.6,0.4-2.8,0.7-3.8,1.4C10.2,296.7,10.1,298.3,10.2,299.3z"/>
	</g>
	<g>
		<path class="st3" d="M21.7,156.5c-0.3,0.1-0.5,0.4-0.5,0.7c0.1,2.2,0.7,11.2,1.2,15.2c0.5,4.1,2.8,18.9,2.9,19.5c0,0,0,0,0,0
			c0,0.5,1,12.6,1.4,15.7c0.7,6.1,2.6,20.9,2.7,21.9c0,0,0,0.1,0,0.1c0,0.4-0.2,2.8-0.2,3.4c0.1,1.1,0.5,3.7,0.6,4c0,0,0,0.1,0,0.1
			l1.4,41c0,0.1,0,0.3-0.1,0.4c-0.4,0.7-2.1,3.4-2.4,4.1c-0.3,0.9-0.8,2.3-1,3.2c-0.1,0.3,0.1,0.7,0.4,0.8c1.3,0.5,4.8,1.9,9.1,3.2
			c4,1.2,11.4,2.3,13.8,2.6c0.4,0.1,0.8-0.3,0.8-0.7v-59.1c0-0.1,0-0.1,0-0.2c0.1-0.3,0.4-1.8,0.2-3.5c-0.4-2.2-1.3-4.4-1.6-4.9
			c0-0.1-0.1-0.2-0.1-0.3c-0.1-1.8-0.6-20.3,0.3-31c0.4-4.3,1.8-16.3,1.8-16.3s0.3-1.4,1.6-1.8c4.3-1.4,5.5,9.8,6.6,19.9
			c2.9,27.6,3.8,36.1,3.9,37.5c0,0.1,0,0.3-0.1,0.4c-0.2,0.3-0.5,1.1-0.9,2.5c-0.2,0.8-0.2,2.8-0.2,2.8l2.7,52.8
			c0,0,0.1,2.2,0.5,3.3c0.2,0.8,0.6,1.3,0.8,1.5c0.1,0.1,0.1,0.2,0.1,0.4l0.1,2.2c0,0.6,0.7,0.8,1.1,0.5c1.6-1.4,5-3.9,9.6-4.4
			c5.6-0.7,9.5,0.5,11,1.1c0.4,0.2,0.9-0.1,0.9-0.5c0.2-1.2,0.3-3.3-0.4-4.9c-0.7-1.7-1.5-2.4-1.8-2.7c-0.1-0.1-0.2-0.3-0.3-0.5
			c-0.2-2.6-1.8-19.9-2.2-25.8c-0.4-6-0.8-23.5-0.8-23.9c0,0,0,0,0,0l0.1-5.2c0-0.8,0.2-1.6,0.5-2.4c0.2-0.6,0.4-1.5,0.4-2.6
			c0-0.6-0.4-1.9-0.6-2.3c0-0.1,0-0.2,0-0.2c0-1,0.2-8.3,0.8-18c0.6-9.7,1.6-22,1.7-27c0.1-5.7-1.7-19-1.7-19l-0.6-5.2
			c0-0.2-0.2-0.4-0.4-0.5l-11.4-4.9c-0.1-0.1-0.3-0.1-0.4,0l-23.5,5.5c-0.1,0-0.2,0-0.2,0l-13-1.5c0,0-0.1,0-0.1,0l-3.3-0.9
			c-0.1,0-0.3,0-0.4,0L21.7,156.5z"/>
		<path class="st1" d="M67.7,299.5l-0.4-3.6c-0.2-0.2-0.6-0.8-0.9-1.7c-0.4-1.1-0.5-3.2-0.5-3.3l-2.7-52.8c0-0.1,0-2.1,0.2-2.9
			c0.4-1.6,0.8-2.4,0.9-2.7c-0.1-0.9-0.9-9.1-3.9-37.7c-0.9-8.3-1.9-17.8-4.7-19.5c-0.5-0.3-1-0.4-1.6-0.2c-1.1,0.4-1.4,1.6-1.4,1.6
			c0,0.1-1.4,11.9-1.8,16.2c-0.9,10.8-0.3,29.9-0.3,31c0.2,0.4,1.2,2.7,1.6,5.1c0.3,1.8-0.1,3.4-0.2,3.6V293l-0.3,0
			c-0.1,0-9.8-1.3-14.6-2.8c-5.5-1.7-9.7-3.4-9.7-3.4l-0.2-0.1l0.1-0.2c0,0,0.8-2.5,1.2-3.8c0.3-0.8,2.2-3.8,2.5-4.3l-1.4-41.2
			c0-0.1-0.5-2.9-0.6-4.1c0-0.7,0.2-3.4,0.2-3.5c0-0.1-2.1-15.7-2.7-22c-0.3-3.1-1.4-15.6-1.4-15.7c0-0.1-2.4-15.4-2.9-19.6
			c-0.5-4.6-1.2-15.6-1.3-15.8l0-0.2l11.9-4l3.6,0.9l13,1.6l23.9-5.6l0.1,0l12.1,5.2l0.7,5.7c0,0.1,1.8,13.4,1.7,19
			c0,3.1-0.5,9.2-0.9,15.6c-0.3,3.8-0.5,7.8-0.8,11.4c-0.6,9.9-0.8,17.4-0.8,18c0.1,0.3,0.6,1.8,0.6,2.4c0,1.1-0.2,2.1-0.5,2.6
			c-0.3,0.8-0.4,1.6-0.5,2.3L85,237c0,0.2,0.5,18,0.8,23.9c0.4,6.1,2.1,24.3,2.2,26c0.3,0.2,1.3,1,2.1,2.9c1,2.5,0.3,5.8,0.3,6
			l-0.1,0.3L90,296c0,0-4.3-2.3-11.7-1.4c-6.4,0.7-10,4.8-10.1,4.9H67.7z M54.8,174.6c0.4,0,0.8,0.1,1.2,0.4
			c3,1.9,3.9,11.1,4.9,19.9c3.2,30.2,3.9,37.7,3.9,37.8l0,0.1l-0.1,0.1c0,0-0.5,0.7-0.9,2.6c-0.2,0.7-0.2,2.7-0.2,2.8l2.7,52.7
			c0,0,0.1,2.1,0.5,3.2c0.3,1,0.8,1.6,0.9,1.6l0.1,0.1l0,0.1l0.2,2.7c0,0.2,0.3,0.4,0.5,0.2c1.6-1.4,5.1-4.1,10-4.6
			c6.5-0.8,10.5,0.8,11.7,1.3c0.2-0.9,0.5-3.4-0.3-5.3c-0.9-2.2-1.9-2.7-1.9-2.7l-0.1-0.1l0-0.1c0-0.2-1.8-19.8-2.2-26.2
			c-0.4-6-0.8-23.8-0.8-24l0.1-5.2c0-0.8,0.2-1.6,0.5-2.5c0.2-0.5,0.4-1.4,0.4-2.5c0-0.5-0.4-1.9-0.6-2.3l0,0l0,0
			c0-0.1,0.2-7.8,0.8-18.1c0.2-3.6,0.5-7.6,0.8-11.4c0.4-6.4,0.9-12.5,0.9-15.6c0.1-5.6-1.7-18.8-1.7-19L85,155l-11.8-5.1l-23.8,5.6
			l0,0l-13.1-1.6l-3.5-0.9l-11.4,3.8c0.1,1.5,0.7,11.3,1.2,15.5c0.5,4.1,2.9,19.4,2.9,19.6c0,0.1,1,12.6,1.4,15.7
			c0.7,6.2,2.7,21.8,2.8,22c0,0.1-0.2,2.9-0.2,3.5c0.1,1.2,0.6,4,0.6,4l1.4,41.4l0,0.1c-0.8,1.2-2.3,3.6-2.5,4.3
			c-0.4,1-0.9,2.9-1.1,3.5c0.9,0.4,4.7,1.9,9.5,3.3c4.3,1.3,12.6,2.5,14.2,2.7l0-59.7c0,0,0.5-1.6,0.2-3.4c-0.4-2.4-1.6-5-1.6-5
			l0-0.1c0-0.2-0.7-20.1,0.3-31.2c0.4-4.3,1.8-16.1,1.8-16.3c0-0.1,0.4-1.5,1.8-2C54.3,174.6,54.5,174.6,54.8,174.6z"/>
	</g>
	<path class="st1" d="M59.7,175.9c-0.3,0-7.1-0.9-10.3-2.9c-4.1-2.6-5.9-6.9-6-7l0.5-0.2c0,0,1.8,4.3,5.8,6.8
		c3.1,1.9,10.1,2.8,10.1,2.8L59.7,175.9z"/>
	<path class="st1" d="M32.8,153.3c0,0,7.7,2.5,17.3,2.5c12.7,0,23.2-5.6,23.2-5.6l2-4.5l-4.3-0.2c0,0-2.2,2.7-19,5.4
		c-8.9,1.4-18.3-1.8-18.3-1.8L32.8,153.3z"/>
	<path class="st2" d="M32.8,152.7c0,0,7.7,2.5,17.3,2.5c12.7,0,23.2-5.6,23.2-5.6l2-4.5l-4.3-0.2c0,0-2.2,2.7-19,5.4
		c-8.9,1.4-18.3-1.8-18.3-1.8L32.8,152.7z"/>
	<g>
		<path class="st4" d="M36.4,149.2v5.2c0,0.6,0.4,1.1,0.9,1.2c1.1,0.3,3.1,0.6,5.7,0.8c2.6,0.1,4.8,0.1,6,0.1c0.7,0,1.2-0.6,1.2-1.2
			v-4.7c0,0-5.2,0-6.9-0.2C41.6,150.2,36.4,149.2,36.4,149.2z"/>
		<polygon class="st5" points="40.4,150 42.3,150.3 46.1,156.5 44.1,156.5 		"/>
		<path class="st1" d="M46.7,156.8c-1.1,0-2.3,0-3.7-0.1c-2.5-0.1-4.5-0.5-5.8-0.8c-0.7-0.2-1.1-0.7-1.1-1.4v-5.5l0.3,0.1
			c0.1,0,5.2,1,6.9,1.2c1.7,0.2,6.9,0.2,6.9,0.2h0.3v4.9c0,0.8-0.6,1.5-1.4,1.5C48.4,156.7,47.6,156.8,46.7,156.8z M36.6,149.5v4.9
			c0,0.5,0.3,0.9,0.7,1c1.2,0.3,3.2,0.6,5.7,0.8c2.5,0.1,4.7,0.1,6,0.1c0.5,0,0.9-0.4,0.9-1v-4.4c-1.1,0-5.2,0-6.7-0.2
			C41.8,150.5,37.7,149.7,36.6,149.5z"/>
	</g>
	<g>
		<path class="st6" d="M68.6,153.8c0,0,4,2.1,6.8,5.3c3.7,4.2,4.9,7.4,4.9,7.4l1.1-1.3c0.4-0.4,0.7-0.9,1-1.4l2.9-4.3
			c0,0-3.1-3.9-5.4-5c-3.2-1.5-6.3-1.9-6.3-1.9l-2.1,3.4"/>
		<path class="st1" d="M80.1,166.9l-0.2-0.4c0,0-1.2-3.1-4.8-7.3c-2.7-3.1-6.6-5.2-6.7-5.2l0.2-0.4c0,0,1.3,0.7,2.9,1.8l1.9-3.1
			l0.2,0c0.1,0,3.2,0.3,6.4,1.9c2.3,1.1,5.3,4.9,5.4,5.1l0.1,0.1l-3,4.4c-0.3,0.5-0.7,0.9-1,1.4L80.1,166.9z M72,155.7
			c1.2,0.9,2.5,1.9,3.5,3.2c3,3.4,4.3,6.1,4.8,7l0.8-1c0.4-0.4,0.7-0.9,1-1.4l2.8-4.1c-0.6-0.7-3.2-3.9-5.2-4.8
			c-2.7-1.3-5.4-1.7-6.1-1.8L72,155.7z"/>
	</g>
	<g>
		<path class="st2" d="M68.6,298.9v4.1c0,0,3,0.2,7.9-0.3c3.8-0.4,4.2-1.3,11.6-1.9c1.1-0.1,4.3,0.1,4.3,0.1s-0.4-2.3-0.7-3
			c-0.3-0.6-1.4-2.2-1.4-2.2s-4.1-2.5-12.5-1.4C73.1,295.1,68.6,298.9,68.6,298.9z"/>
		<path class="st1" d="M70.4,303.3c-1.2,0-1.9-0.1-1.9-0.1l-0.2,0v-4.4l0.1-0.1c0.2-0.2,4.7-3.9,9.2-4.5c8.4-1.1,12.5,1.3,12.7,1.4
			l0.1,0.1c0,0.1,1.2,1.6,1.5,2.2c0.3,0.7,0.7,2.9,0.7,3l0.1,0.3l-0.3,0c0,0-3.2-0.2-4.3-0.1c-4.5,0.3-6.4,0.8-8,1.2
			c-1,0.3-2,0.5-3.5,0.7C73.9,303.2,71.8,303.3,70.4,303.3z M68.8,302.8c0.8,0,3.6,0.1,7.6-0.3c1.5-0.2,2.4-0.4,3.4-0.7
			c1.7-0.4,3.6-0.9,8.1-1.2c0.9-0.1,3.2,0,4,0.1c-0.1-0.7-0.4-2.1-0.6-2.6c-0.2-0.5-1.2-1.8-1.4-2.1c-0.4-0.2-4.5-2.4-12.3-1.3
			c-4.1,0.5-8.2,3.8-8.9,4.3V302.8z"/>
	</g>
	<g>
		<path class="st1" d="M68.6,305.6c0,0,3.9-0.1,9.7-0.2c3-0.1,8.4,0,10.1-0.2c3.1-0.3,4-1.3,4-1.3v-2.9c0,0-4-0.4-7.2,0.1
			c-13.9,2.4-16.6,1.9-16.6,1.9V305.6z"/>
		<path class="st1" d="M69.1,305.9c-0.4,0-0.8-0.3-0.8-0.8v-2.4l0.3,0.1c0,0,2.8,0.4,16.5-1.9c3.2-0.5,7.2-0.1,7.2-0.1l0.2,0v3.2
			l-0.1,0.1c0,0-1,1.1-4.1,1.4c-1.2,0.1-4,0.1-6.7,0.2c-1.2,0-2.4,0-3.4,0C74,305.8,70.6,305.8,69.1,305.9z M68.8,303.3v2.1
			c1,0,4.5-0.1,9.4-0.2c1,0,2.2,0,3.4,0c2.6,0,5.5-0.1,6.6-0.2c2.5-0.3,3.5-1,3.7-1.2v-2.6c-0.9-0.1-4.2-0.3-6.9,0.1
			C73.6,303.3,69.8,303.3,68.8,303.3z"/>
	</g>
	<path class="st7" d="M75.7,298.4c0,1,2.7,1.8,6,1.8c3.3,0,7.6-1.6,7.6-2.6c0-1-2.7-1.8-6-1.8C80,295.8,75.7,297.4,75.7,298.4z"/>
	<path class="st7" d="M14,295.8c0,0,9.2,5.4,19.4-0.6c1.8-1.1-5-6.4-5-6.4s-2.1,2.8-5.9,4.3C17.9,294.9,14,295.8,14,295.8z"/>
	<g>
		<path class="st6" d="M68.8,44.5c-0.2-1-0.3-4-0.3-4l-22-0.5c0,0,0.1,3.7,0,4.8c-0.1,1.2-1,4.2-1,4.2s-1,11.6,11.5,10.5
			c7.9-0.7,11.4-5.2,12.6-8.1c0.5-1.2,0.5-2.5,0.5-2.5S69,45.6,68.8,44.5z"/>
		<path class="st8" d="M55.3,59.9c-3.1,0-5.6-0.9-7.3-2.6c-3.2-3.2-2.8-8.1-2.8-8.3c0-0.1,0.9-3.1,1-4.2c0.1-1.1,0-4.7,0-4.8l0-0.3
			l22.5,0.5l0,0.2c0,0,0.2,3,0.3,3.9l0,0c0.2,1.1,1.2,4.5,1.2,4.5c0,0.1,0.1,1.3-0.5,2.6c-1,2.2-4.1,7.4-12.8,8.2
			C56.4,59.9,55.8,59.9,55.3,59.9z M46.7,40.3c0,0.9,0.1,3.6-0.1,4.6c-0.1,1.2-1,4.1-1,4.3c0,0-0.4,4.8,2.7,7.8
			c1.9,1.9,4.8,2.7,8.6,2.4c8.4-0.8,11.5-5.8,12.4-7.9c0.5-1.2,0.5-2.3,0.5-2.3c0-0.1-1-3.4-1.2-4.5c-0.2-0.8-0.3-3-0.3-3.8
			L46.7,40.3z"/>
	</g>
	<g>
		<defs>
			<path id="SVGID_1_" d="M68.8,44.5c-0.2-1-0.3-4-0.3-4l-22-0.5c0,0,0.1,3.7,0,4.8c-0.1,1.2-1,4.2-1,4.2s-1.1,11.8,10.9,10.6
				C69,58.4,70,49.1,70,49.1S69,45.6,68.8,44.5z"/>
		</defs>
		<clipPath id="SVGID_2_">
			<use xlink:href="#SVGID_1_"  style="overflow:visible;"/>
		</clipPath>
		<path class="st9" d="M68.7,42.5c0,0-1.1,3.8-4.5,5.8c-4.3,2.6-6.7,2.7-8.4,2.5c-2.4-0.2-2.3,2.6-1.4,3.3c2.7,2.4,11.6,2,11.6,2
			s-2.7,1.8-3.7,2.2c-0.8,0.4-3.5,0.9-3.5,0.9s-3.4,0.7-6.5-0.3c-1.7-0.6-7-3.6-7-3.6V38.7L68.7,42.5z"/>
		<path class="st10" d="M68.1,43.3c0,0-2.2,3.8-6.5,5.8c-1.4,0.6-4.5,0.8-4.5,0.8l-5-0.6c-1.8-0.2-3.2,1.4-2.8,3.2l1,5.8
			c0,0-2.4-1.1-3.8-3.4c-0.9-1.4-2-6.1-2-6.1l1.1-7l1.1-0.9l5.7,3.8L68.1,43.3z"/>
	</g>
	<g id="face_2_">
		<g>
			<path id="face_5_" class="st6" d="M66.5,45.2c2.9-2.4,5.6-11.5,5.6-11.5s1.8,1.2,2.9-1c0.1-0.1,0.1-0.5,0.2-0.7
				c0.6-1.2,1.7-2.6,2-4.9c1-7.1-1.7-6-1.7-6s-0.5,0.2-0.6,0.3c-0.1,0.1-0.7,0.4-0.7,0.4l-4-13.4L60,5.1L49.5,5.3l-7,4.3l0.4,5.8
				c0,0-0.9,6.8-0.9,7S41.2,23,41.2,23s0-2.1-1.3-2.1c-2.3,0-3.2,2.4-1.5,7.7c0.6,2,2.1,3.7,2.1,3.7s0.3,0.8,1,1.2
				c0.6,0.3,1.8,0.1,1.8,0.1s0.4,1.6,1.4,3.9c0.9,2.1,2.2,4.7,4.5,6.9C54.8,50,59.8,50.9,66.5,45.2z"/>
			<path id="face_1_" class="st8" d="M60,5.1l10.2,3.5l4,13.4c0,0,0.6-0.3,0.7-0.4c0.1-0.1,0.6-0.3,0.6-0.3s0.1-0.1,0.3-0.1
				c0.7,0,2.1,0.6,1.3,6.1c-0.3,2.2-1.4,3.7-2,4.9c-0.1,0.2-0.1,0.5-0.2,0.7c-0.5,1-1.2,1.3-1.8,1.3c-0.6,0-1.2-0.3-1.2-0.3
				s-2.7,9.1-5.6,11.5c-3.1,2.6-5.8,3.9-8.5,3.9c-3.1,0-5.9-1.7-9-4.7c-2.3-2.2-3.6-4.9-4.5-6.9c-1-2.3-1.4-3.9-1.4-3.9
				s-0.4,0.1-0.9,0.1c-0.3,0-0.7,0-0.9-0.2c-0.7-0.4-1-1.2-1-1.2s-1.5-1.6-2.1-3.7c-1.6-5.4-0.7-7.7,1.5-7.7c1.3,0,1.3,2.1,1.3,2.1
				s0.8-0.5,0.8-0.6s0.9-7,0.9-7l-0.4-5.8l7-4.3L60,5.1 M60,4.6L60,4.6L49.4,4.8l-0.1,0l-0.1,0.1l-7,4.3L42,9.4l0,0.3l0.4,5.7
				c-0.3,2.5-0.7,5.4-0.9,6.5c-0.2-0.8-0.7-1.5-1.7-1.5c-0.9,0-1.7,0.4-2.2,1c-1,1.3-0.9,3.8,0.2,7.4c0.6,1.9,1.8,3.4,2.1,3.8
				c0.1,0.3,0.5,1,1.2,1.4c0.3,0.1,0.7,0.2,1.1,0.2c0.2,0,0.4,0,0.5,0c0.2,0.6,0.6,1.9,1.3,3.5c0.8,1.9,2.2,4.7,4.6,7.1
				c3.4,3.3,6.3,4.8,9.4,4.8c2.8,0,5.6-1.3,8.8-4c2.6-2.2,4.9-9.1,5.5-11.2c0.2,0.1,0.5,0.1,0.9,0.1c0.6,0,1.6-0.3,2.2-1.6
				c0.1-0.1,0.1-0.3,0.1-0.4c0-0.1,0-0.2,0-0.2c0.1-0.2,0.3-0.5,0.4-0.8c0.6-1.1,1.4-2.4,1.6-4.2c0.4-3.1,0.2-5.1-0.6-6.1
				c-0.4-0.5-0.9-0.6-1.2-0.6c-0.3,0-0.5,0.1-0.5,0.1c-0.2,0.1-0.6,0.3-0.7,0.4c0,0-0.1,0-0.1,0.1L70.7,8.5l-0.1-0.2l-0.2-0.1
				L60,4.6L60,4.6L60,4.6z"/>
		</g>
		<path class="st11" d="M73.4,24.4c0,0,0.5-1.8,1.3-2c1.4-0.3,1.4,1.3,1.3,2.3c0,0.3-0.3,0.4-0.6,0.3c-0.2-0.1-0.4-0.2-0.4,0
			c-0.1,1.2,0.5,1.8,0.6,2c0.1,0.3,0,0.8-0.1,1.1c-0.2,0.7-0.4,1-0.8,1.5c-0.2,0.2-0.6-0.2-0.8,0.1c-0.5,0.8,0.6,1.6,0.4,2
			c-0.4,0.7-1.8,1.2-2,0.7c-0.1-0.2-0.1-0.9-0.1-0.9L73.4,24.4z"/>
		<path class="st8" d="M73,29.9l0.7-3.9c0,0-0.2-1.1,0-1.7c0,0,0.1-0.5,0.5-0.6c0.2,0,0.8,0.2,0.9,0.3c0.6,0.2,0.6-0.6,0.6-0.6
			l-0.1-0.5L75,22.4l-1,0.4l-0.7,2L73,29.9z"/>
		<path class="st8" d="M74.8,29.6c0,0,0.9-0.8,0.6-2.3c-0.2-0.9-0.2-1.9-0.2-1.9l0.3,0.6c0.3,0.6,0.4,1.3,0.4,1.9v0c0,0,0,0.5-0.3,1
			C75.2,29.2,74.8,29.6,74.8,29.6z"/>
		<path class="st8" d="M73.7,32.3c0,0,0.4-0.4,0.4-0.8c0-0.7,0-0.7,0-0.7s0.2,0.3,0.3,0.5c0.1,0.2,0,0.4,0,0.4s-0.1,0.2-0.3,0.4
			C73.9,32.2,73.7,32.3,73.7,32.3z"/>
		<polygon class="st11" points="55.9,22.3 54.9,19.7 52.9,20.7 54.5,22 55.2,22.9 		"/>
		<path class="st11" d="M66.7,33.6c0.7,0.4,1.3,1.5,1.2,1.8c0,0.1-0.7,4.3-0.7,4.3l-0.2,0.4c0,0-0.1,0-0.1,0l0.2-4
			c0-0.5-0.2-0.9-0.6-1.2c-0.4-0.4-1.1-0.8-1.5-0.9c-1.7-0.3-2.8,0.1-2.8,0.1l1.3,0.9l1.5,0.4l0.6,1.1l-0.4,5.2l2.2-1.1v1.5l0.7,0
			l2.3-4.3l1-4.2c0,0-0.7,1.7-1.1,2.1c-0.3,0.4-1.5,1-1.5,1l0-0.3c0.2-1.2-0.5-2.4-1.6-2.9c-0.2-0.1-3.4-1.2-3.4-1.2
			S65.6,32.9,66.7,33.6z"/>
		<path class="st11" d="M44.8,19.4c0,0-2.8,6.8,0.2,12.8c0.7,1.5,1.1,2,1.9,2.4c0.1,0.1,1.5,5.2,1.5,5.2s0.2,0.2,0.2-0.5
			c-0.1-1.4-0.7-4.2-0.6-4.1c1.3,0.2,2.6-0.7,2.6-0.7l-0.6,3.1l0.7,4l0.5,1.6c0,0-0.3,1.2-0.5,1.2c-0.2,0-3.9-2.4-3.9-2.4l-2-5.9
			l-2.3-7.7l-0.1-7.3L44.8,19.4z"/>
		<g>
			<path class="st11" d="M54.5,22c0,0,0.3-1.1,0.7-0.6c1.4,1.5,1.4,4.3,1.2,6.5c0,0.2-0.1,0.8-0.1,1.2c-0.1,0.4-0.2,0.7-0.2,0.7
				s-0.2,0.5-0.4,0.9c-0.2,0.7-0.2,1.4-0.2,1.4s0,0.4,0.9,1.3c0.3,0.2,1.1,0.3,1.1,0.3s0.4,0,0.6-0.1c0.4-0.1,1.1-0.5,1.1-0.5
				s0-0.6,0.1-0.8c0-0.1,0.1-0.1,0.1-0.2c0.1-0.2,0.1-0.4,0.1-0.7c0-0.1-0.1-0.2-0.1-0.3c-0.1-0.3-0.2-0.7-0.2-0.9
				c0-0.4,0-1.3,0-1.7c0-0.1,0.1-0.2,0.2-0.2l0.1,0c0.1,0,0.2,0.1,0.2,0.2c0,0.2,0,0.6,0.1,0.8c0,0.1,0.3,1.1,0.3,1.1
				s0.3,0.6,0.2,1.3c0,0.5-0.2,0.8-0.2,0.8s0,0.5,0.8,0.5c0.3,0,0.9-0.4,0.9-0.4L61,33.2l-0.4,0.5l4.3,1.9c0,0-0.2,0.2-0.3,0.2
				c-0.3,0.2-5.3,0.4-7,0.3c-1.7,0-6.9-0.2-7-0.3c-0.6-0.6-1.4-0.6-1.4-0.6s0.6-0.8,1.4-1c1.3-0.3,1.7-0.6,1.7-0.6s0.3,0.2,0.6-0.3
				c0.3-0.5-0.4-1.1-0.4-1.1s-0.3-0.1-1,0c-0.1,0-0.8,0.3-1.1,0.5c-0.7,0.4-1,0.7-1,0.7s0.9-0.9,1.6-1.3c0.5-0.3,1.6-0.5,1.6-0.5
				s0.1-0.6,0.7-1.1c0.6-0.5,1.1-0.6,1.1-0.6s0.2-0.7,0.4-1.5c0.1-0.5,0.1-1.2,0.1-1.6c0.2-1-0.5-1.1-0.5-1.1s-0.2,0-0.4-0.1
				c-0.4-0.2-0.4-0.3-0.4-0.3s-2.9,1.8-4.8,1.5c-2-0.3-2.4-1.5-2.4-1.5s0.7-1.8,1.5-2.1c0.7-0.3,1.7-0.6,4.1-0.9
				c0.5-0.1,0.9-0.5,1.3-0.6C53.8,21.3,54.5,22,54.5,22z"/>
		</g>
		<g>
			<defs>
				<path id="SVGID_3_" d="M54.5,22c0,0,0.3-1.1,0.7-0.6c1.4,1.5,1.4,4.3,1.2,6.5c0,0.2-0.1,0.8-0.1,1.2c-0.1,0.4-0.2,0.7-0.2,0.7
					s-0.2,0.5-0.4,0.9c-0.2,0.7-0.2,1.4-0.2,1.4s0,0.4,0.9,1.3c0.3,0.2,1.1,0.3,1.1,0.3s0.4,0,0.6-0.1c0.4-0.1,1.1-0.5,1.1-0.5
					s0-0.6,0.1-0.8c0-0.1,0.1-0.1,0.1-0.2c0.1-0.2,0.1-0.4,0.1-0.7c0-0.1-0.1-0.2-0.1-0.3c-0.1-0.3-0.2-0.7-0.2-0.9
					c0-0.4,0-1.3,0-1.7c0-0.1,0.1-0.2,0.2-0.2l0.1,0c0.1,0,0.2,0.1,0.2,0.2c0,0.2,0,0.6,0.1,0.8c0,0.1,0.3,1.1,0.3,1.1
					s0.3,0.6,0.2,1.3c0,0.5-0.2,0.8-0.2,0.8s0.1,0.1,0.8,0.1c0.3,0,0.9-0.1,0.9-0.1L61,33.2l-0.4,0.5l-3,0.7l-2-0.3l-1.2,0l-5.6,0.1
					c0,0,1.1-0.6,1.6-0.7c1.3-0.3,2.1,0,2.1,0s0.5-0.2,0.4-0.5c-0.1-0.2-0.2-1-0.2-1s-0.3-0.1-1,0c-0.1,0-0.8,0.3-1.1,0.5
					c-0.7,0.4-1,0.7-1,0.7s0.9-0.9,1.6-1.3c0.5-0.3,1.6-0.5,1.6-0.5s0.1-0.6,0.7-1.1c0.6-0.5,1.1-0.6,1.1-0.6s0-0.8,0.1-1.6
					c0.1-0.5,0.3-1.1,0.4-1.5c0.2-1-0.5-1.1-0.5-1.1s-0.2,0-0.4-0.1c-0.4-0.2-0.4-0.3-0.4-0.3s-2.9,1.8-4.8,1.5
					c-2-0.3-2.4-1.5-2.4-1.5s0.7-1.8,1.5-2.1c0.7-0.3,1.7-0.6,4.1-0.9c0.5-0.1,0.9-0.5,1.3-0.6C53.8,21.3,54.5,22,54.5,22z"/>
			</defs>
			<clipPath id="SVGID_4_">
				<use xlink:href="#SVGID_3_"  style="overflow:visible;"/>
			</clipPath>
			<path class="st12" d="M54.6,29.2c0,0,0.4-1.5,0.4-2.5c0.1-2.5-0.7-3-0.7-3s-0.3,1.1-2.2,0.8c-2-0.3-4.6-0.3-4.6-0.3
				s-0.4-0.8,0.4-1.2c0.7-0.3,1.7-0.6,4.1-0.9c0.5-0.1,0.9-0.5,1.3-0.6c0.5-0.2,1.2,0.5,1.2,0.5s0.3-1.1,0.7-0.6
				c1.4,1.5,1.5,3.9,0.8,6.9c0,0-0.2,0.9-0.7,1.1C54.8,29.5,54.6,29.2,54.6,29.2z"/>
		</g>
		<path class="st11" d="M41.3,24.2c0,0-0.8-1.7-1.6-1.8c-1.5-0.2-1.4,1.4-1.2,2.4c0.1,0.3,0.4,0.4,0.6,0.2c0.2-0.2,0.4-0.3,0.4,0
			c0.3,1.2-0.4,1.8-0.4,2c-0.1,0.3,0.1,0.8,0.2,1.1c0.3,0.7,0.5,1,1.1,1.4c0.2,0.2,0.7-0.3,0.9,0c0.6,0.7-0.5,1.6-0.2,2
			c0.5,0.7,2,1,2.2,0.5c0.1-0.2,0-0.9,0-0.9L41.3,24.2z"/>
		<path class="st11" d="M45.6,17.5c0,0,0.3-4.6,2.3-6.5c3.3-3.1,6-2.8,6-2.8l-4.6-2l-6,4.4v4.8L45.6,17.5z"/>
		<path class="st13" d="M44.9,19.6c0,0,1.2-0.9,0.6-6.2C45.4,12.1,46,10.7,47,10C52,6.3,69.4,9.3,69.4,9.3l-4.4-3.2L54.1,4.9
			l-7.3,1.8l-3.4,4.4l0.6,5.5L44.9,19.6z"/>
		<path class="st14" d="M42.2,27.9c0,0,0.5,0.2,0.5-0.7c0.1-1.6-0.2-4.7,0.1-5.7c0.1-0.5,1.8-0.3,2.4-2.8c0.5-2.2-0.4-5.4-0.4-5.4
			s-0.7-1.8,1.2-3.4c0.3-0.2,0.9-0.7,2-1.2c1.7-0.7,4.1-1.1,8-1.2c1.8,0,3.4,0.1,4.5,0.3c0.9,0.1,1.8,0.2,2.7,0.3
			c1,0.1,2.3,0.2,2.8,0.3c0.6,0.1,2.1,0.5,2.9,0.7c0.3,0.1,0.6,0.3,0.6,0.7c0,0,0.7,4.3,1,5.7c0.2,0.8,0.9,2.8,1.3,4.2
			c0.6,2,0.3,3.4,0.3,6c0,1,0,3.1,0,3.1l0.7,1.2c0,0,0.2-2.5,0.2-3.2c0-0.5,0.1-2.3,0.6-3.7c0.3-0.9,1.1-1.9,1.4-2c0.1,0,0-0.7,0-2
			c-0.1-1.1-0.4-3.6-0.6-5c-0.3-2.3-0.3-3.3-0.7-4.7c-0.4-1.4-1.2-1.4-1.2-1.4h-1c-0.2,0-0.4-0.1-0.5-0.3l-0.7-1.6
			c-0.2-0.4-1.3-2-3.9-3.1C61,0.3,58.7,0.1,57.5,0c-1.1-0.1-1.8,0-2.2,0c-0.3,0-0.5,0-0.8,0c-0.9-0.1-3.2-0.1-6.4,0.8
			C46.5,1.3,45,3,45,3s-2,2.8-3.3,4.3c-0.3,0.3-0.8,0.9-1.2,1.4c-0.9,0.9-1.3,2.1-1.3,3.4c0.1,1.6,0.2,3.9,0.3,5
			c0.1,0.8,0.7,2.2,1,3.6c1,4.4,1.3,6.8,1.3,6.8L42.2,27.9z"/>
		<path class="st14" d="M60.8,20.4l-0.4-0.5c-0.1-0.2-0.1-0.4,0-0.6l0,0c0.1-0.1,0.3-0.2,0.5-0.3l3.4-0.4c0.5-0.1,1.1,0,1.7,0.2
			l3.4,1.9c0.3,0.1,0.9,0.7,0.9,1.2c0,0.3-0.3,0.5-0.4,0.4c-0.4-0.2-1.1-0.6-1.8-0.9c-0.8-0.4-1.7-0.8-2.2-0.9c-1.2-0.1-3,0.2-4,0.3
			C61.5,20.9,61.1,20.7,60.8,20.4z"/>
		<path class="st14" d="M54.4,20.4l0.4-0.5c0.1-0.2,0.1-0.4,0-0.6l0,0c-0.1-0.1-0.3-0.2-0.5-0.3l-3.4-0.4c-0.5-0.1-1.1,0-1.7,0.2
			l-3.4,1.9c-0.3,0.1-0.9,0.7-0.9,1.2c0,0.3,0.3,0.5,0.4,0.4c0.4-0.2,1.1-0.6,1.8-0.9c0.8-0.4,1.7-0.8,2.2-0.9c1.2-0.1,3,0.2,4,0.3
			C53.7,20.9,54.1,20.7,54.4,20.4z"/>
		<linearGradient id="SVGID_5_" gradientUnits="userSpaceOnUse" x1="59.4662" y1="22.4603" x2="68.8592" y2="24.2802">
			<stop  offset="0" style="stop-color:#E7A782"/>
			<stop  offset="1" style="stop-color:#F7CAA2"/>
		</linearGradient>
		<path class="st15" d="M62.2,24.7c0,0,0,0.4,2.5,0.5c0.6,0,1.4,0.2,2.3,0.3c1.6,0,2-0.3,2-0.3v0c-0.2,0.5-0.7,0.8-1.3,0.8
			c-1.1,0.1-2.9,0.2-4.6,0.2c-0.1,0-0.7,0-0.8,0c-0.9-0.3-1.2-0.7-1.5-1.2c-0.2-0.4-0.4-1.3-0.4-1.7c0-0.1-0.1-0.2-0.2-0.2l-0.1,0
			c0,0,0.2,0.8-0.5,1.2c-0.1,0-0.2,0-0.3,0.1l0,0c0,0-0.3-0.7,0-2.5c0.1-0.6,0.9-2.4,0.9-2.4s0.5,2.1,2.6,2.3
			c0.9,0.1,2.7-0.3,3.6-0.1c1.3,0.3,2.1,1.6,2.1,1.6s-2-1.6-4.8-0.9C62.1,22.9,62.2,24.7,62.2,24.7z"/>
		<path class="st8" d="M66.7,22.1c0,0-0.4-0.2-1.6-0.2c-0.8,0-2.4,0-2.7,0c-0.8-0.1-2.1-0.9-2.1-0.9s0.1,0.4,0.3,0.5
			c0.5,0.4,0.4,0.1,1,0.7c0.4,0.3,0.2,0.7,0.3,1.4c0.2,0.8,0.4,1.2,0.4,1.2s-0.1-2.1,0.5-2.4C63.3,22,66.7,22.1,66.7,22.1z"/>
		<path class="st13" d="M68.2,22.9c0,0-1.3-1.3-4.7-0.9c-2.3,0.3-1.3,2.8-1.3,2.8L68.2,22.9z"/>
		<path class="st6" d="M46.4,24.8c0,0,0.4,0.4,0.6,0.5c2.3,0.6,2.6,0,4.3-0.2c1.5-0.2,1.9-0.3,1.9-0.3l-6.5-0.3L46.4,24.8z"/>
		<g id="eye_3_">
			<path class="st16" d="M69.1,24.3c0,0-0.3-1.7-2.7-2.2c-4.3-0.8-4.3,2.2-4.3,2.2l6.4,0.2L69.1,24.3z"/>
			<path id="bilok_3_" class="st17" d="M69.1,24.3c0,0-0.8,0.5-1.2,0.5c-0.4,0.1-0.9,0-0.9,0c-0.1,0-0.2,0-0.3,0
				c-0.4-0.1-1.6-0.2-3-0.2c-0.3,0-0.8,0-1.1,0.1c-0.1,0-0.2,0-0.3-0.1l0,0c-0.1-0.1-0.2-0.2-0.2-0.4c0-0.1,0-0.1,0-0.1
				c0.1-0.4,0.9-1.8,2-1.9C68.2,22,69.1,24.3,69.1,24.3z"/>
			<g id="Eye_inside_3_">
				<defs>
					<path id="SVGID_6_" d="M69.1,24.3c0,0-0.8,0.5-1.2,0.5c-0.4,0.1-0.9,0-0.9,0c-0.1,0-0.2,0-0.3,0c-0.4-0.1-1.6-0.2-3-0.2
						c-0.3,0-0.8,0-1.1,0.1c-0.1,0-0.2,0-0.3-0.1l0,0c-0.1-0.1-0.2-0.2-0.2-0.4c0-0.1,0-0.1,0-0.1c0.1-0.4,0.9-1.8,2-1.9
						C68.2,22,69.1,24.3,69.1,24.3z"/>
				</defs>
				<clipPath id="SVGID_7_">
					<use xlink:href="#SVGID_6_"  style="overflow:visible;"/>
				</clipPath>
				<g class="st18">
					<circle class="st19" cx="65.3" cy="23.6" r="1.9"/>
					<path class="st20" d="M65.3,25.6C65.2,25.6,65.2,25.6,65.3,25.6c-1.2,0-2.1-1-2-2.1c0-1.1,1-2,2.1-1.9c0.5,0,1,0.3,1.4,0.6
						c0.4,0.4,0.6,0.9,0.5,1.4c0,0.5-0.3,1-0.6,1.4C66.2,25.4,65.8,25.6,65.3,25.6z M65.3,21.7c-1,0-1.8,0.8-1.9,1.8
						c0,1,0.8,1.9,1.8,2c0.5,0,1-0.2,1.4-0.5c0.4-0.3,0.6-0.8,0.6-1.3l0,0c0-0.5-0.2-1-0.5-1.4S65.8,21.8,65.3,21.7
						C65.3,21.7,65.3,21.7,65.3,21.7z"/>
				</g>
				<circle class="st21" cx="65.3" cy="23.6" r="1.4"/>
				<g class="st18">
					<circle class="st17" cx="64.6" cy="22.8" r="0.4"/>
				</g>
				<path id="shadow_3_" class="st22" d="M62.7,24.8l-0.2-0.2c-0.1-0.1-0.1-0.3-0.1-0.5c0.2-0.6,0.9-2,2.8-1.7
					c4.1,0.6,3.3,2.2,3.3,2.2l0.6-0.2l0.1-0.2l-0.6-0.9l-1-0.7L65,22.1l-1.5,0.3c0,0-0.9,0.8-0.9,0.8c0,0.1-0.5,1.2-0.5,1.2l0.3,0.3
					L62.7,24.8z"/>
			</g>
		</g>
		<g id="eye_2_">
			<path class="st16" d="M46.7,24.5c0,0,0.2-1.7,2.7-2.2c4.2-0.9,4.3,2.2,4.3,2.2l-6.4,0.3L46.7,24.5z"/>
			<path id="bilok_2_" class="st17" d="M46.7,24.5c0,0,0.8,0.5,1.2,0.5c0.4,0.1,0.9,0,0.9,0c0.1,0,0.2,0,0.3,0
				c0.4-0.1,1.6-0.2,3-0.3c0.3,0,0.8,0,1.1,0.1c0.1,0,0.2,0,0.3-0.1l0,0c0.1-0.1,0.2-0.2,0.2-0.4c0-0.1,0-0.1,0-0.1
				c-0.1-0.4-0.9-1.8-2-1.8C47.6,22.2,46.7,24.5,46.7,24.5z"/>
			<g id="Eye_inside_2_">
				<defs>
					<path id="SVGID_8_" d="M46.7,24.5c0,0,0.8,0.5,1.2,0.5c0.4,0.1,0.9,0,0.9,0c0.1,0,0.2,0,0.3,0c0.4-0.1,1.6-0.2,3-0.3
						c0.3,0,0.8,0,1.1,0.1c0.1,0,0.2,0,0.3-0.1l0,0c0.1-0.1,0.2-0.2,0.2-0.4c0-0.1,0-0.1,0-0.1c-0.1-0.4-0.9-1.8-2-1.8
						C47.6,22.2,46.7,24.5,46.7,24.5z"/>
				</defs>
				<clipPath id="SVGID_9_">
					<use xlink:href="#SVGID_8_"  style="overflow:visible;"/>
				</clipPath>
				<g class="st23">
					<circle class="st19" cx="50.5" cy="23.8" r="1.9"/>
					<path class="st20" d="M50.5,25.8c-1.1,0-2-0.8-2-1.9c0-0.5,0.2-1.1,0.5-1.4c0.4-0.4,0.9-0.6,1.4-0.7c1.1-0.1,2.1,0.8,2.1,1.9
						C52.6,24.8,51.7,25.7,50.5,25.8C50.6,25.8,50.6,25.8,50.5,25.8z M48.7,23.9c0.1,1,0.9,1.8,2,1.8c1-0.1,1.8-0.9,1.8-2
						c-0.1-1-0.9-1.8-2-1.8c-0.5,0-1,0.2-1.3,0.6C48.8,22.9,48.6,23.4,48.7,23.9z"/>
				</g>
				<circle class="st24" cx="50.5" cy="23.8" r="1.4"/>
				<g class="st23">
					<circle class="st17" cx="51.2" cy="22.9" r="0.4"/>
				</g>
				<path id="shadow_2_" class="st25" d="M53.1,24.9l0.2-0.2c0.1-0.1,0.1-0.3,0.1-0.5c-0.2-0.6-0.9-2-2.9-1.7
					c-4.1,0.7-3.3,2.3-3.3,2.3l-0.6-0.2l-0.1-0.2l0.6-0.9l1-0.7l2.6-0.5l1.5,0.3c0,0,0.9,0.7,0.9,0.8c0,0.1,0.5,1.2,0.5,1.2
					l-0.3,0.3L53.1,24.9z"/>
			</g>
		</g>
		<path class="st8" d="M55.6,33.2c0,0,0.3,0,0.3,0.1c0.1,0.1,0.4,0.3,0.4,0.3s0.6,0.3,1.2,0.4c0.3,0,0.5-0.1,0.8-0.2
			c0.2-0.1,0.6-0.4,0.9-0.4c0.6-0.1,1.1-0.2,1.1-0.2l-1.4,0c0,0-0.6,0.4-1.5,0.4c-0.6,0-1.4-0.3-1.8-0.6c-0.2-0.2-0.5-0.4-0.7-1
			c-0.3-1,0.1-1.7,0.1-1.7s-0.6,0-1,0.3c-0.4,0.3-0.6,0.7-0.6,0.7s-0.2,0.6,0.1,1.2c0.3,0.6,0.9,0.8,0.9,0.8L55.6,33.2z"/>
		<path class="st13" d="M53.6,31.1c0,0-0.2,0.8,0.3,1.4c0.3,0.4,0.7,0.3,0.7,0.3l0.3,0.4c0,0-0.9,0.1-1.3-0.7
			C53.2,31.7,53.6,31.1,53.6,31.1z"/>
		<path class="st26" d="M55.8,33.2c0.1,0,0.1-0.1,0.1-0.1c-0.2-0.2-0.4-0.5-0.8-0.5c-0.6,0-0.7,0.3-0.7,0.3s-0.1,0.3,0.3,0.3
			c0.4,0.1,0.8,0,0.8,0S55.7,33.2,55.8,33.2C55.8,33.2,55.8,33.2,55.8,33.2z"/>
		<path class="st26" d="M59.1,33.2c-0.1,0-0.1-0.1-0.1-0.1c0.2-0.2,0.5-0.5,0.8-0.5c0.6,0,0.8,0.3,0.8,0.3s0.1,0.3-0.3,0.3
			c-0.4,0.1-0.9,0-0.9,0S59.3,33.2,59.1,33.2C59.1,33.2,59.1,33.2,59.1,33.2z"/>
		<path class="st27" d="M60.5,30.2c0,0-0.1,0.1,0.1,0.4c0.1,0.2,0.9,0.6,1.1,1.2c0.1,0.2,0,0.5-0.1,0.7c-0.1,0.3-1,0.3-1,0.3
			l-0.2,0.4c0,0,0.5,0,0.9-0.2c0.3-0.2,1.1-0.7,0.4-1.7c-0.2-0.3-0.5-0.5-0.8-0.7C60.7,30.4,60.5,30.2,60.5,30.2z"/>
		<path class="st28" d="M56.3,33.6c0,0,0.9,0.3,1.2,0.3c0.3,0,1.2-0.3,1.2-0.3l-0.7,0.5c-0.2,0.2-0.6,0.2-0.9,0L56.3,33.6z"/>
		<path class="st28" d="M58.4,35.4"/>
		<g>
			<path class="st14" d="M46.7,35.3C46.7,35.3,46.7,35.3,46.7,35.3C46.7,35.3,46.7,35.3,46.7,35.3z"/>
			<path class="st14" d="M68.9,35.3C68.9,35.3,68.9,35.3,68.9,35.3C68.9,35.3,68.9,35.3,68.9,35.3z"/>
			<path class="st14" d="M72.3,24.6c0,0,0.2,6-0.4,7.7c-0.3,0.8-0.8,3.1-1.4,4.4c-0.9,2.3-1.7,3.9-1.7,3.9s0.5-3.2,0.6-4
				c0.1-1.3-0.5-1.3-0.5-1.3c0,0,0,0.2-1.1,4.3c-0.3,1.1-2.2,1.6-2.2,1.6c0.1-0.3,0.2-0.7,0.2-1l0-0.4c0.1-1.5,0.2-2.9,0.5-4.4h0
				c0-0.2,0-0.4-0.1-0.5l-0.5-0.6c-0.2-0.2-0.4-0.3-0.6-0.4l-2.6-0.6c-0.2,0-0.6-0.2-1-0.1c-0.5,0.1-1,0.2-1.5,0.2
				c-0.1,0-0.1,0-0.2,0c-1,0.4-1.5,1.2-1.5,1.2c-0.1,0.2-0.1,0.5,0,0.6l0,0c0.2,0.2,2,0.4,3.6,0.4c1.4,0,2.9-0.2,2.9-0.2
				s0.2,0.2,0.2,0.4c0.2,1-0.1,4.1-0.1,4.1c0,0.4-0.1,0.8-0.4,1.1c-0.2,0.3-0.6,0.6-1,0.9c-0.7,0.5-1.8,0.9-1.8,0.9
				s-0.3,0.1-0.6-0.1c-0.4-0.2-0.4-0.6-0.4-0.6l0,0c0.7-0.4,0.3-1.9-0.5-2.2c0,0-0.4,0.1-0.9,0.2c-0.6,0.1-1.6,0.1-1.6,0.1
				s-1,0-1.6-0.1c-0.5-0.1-0.9-0.2-0.9-0.2c-0.8,0.3-1.2,1.7-0.5,2.2l0,0c0,0,0,0.4-0.4,0.6c-0.3,0.2-0.6,0.1-0.6,0.1
				s-1.1-0.5-1.8-0.9c-0.4-0.3-0.7-0.6-1-0.9c-0.3-0.3-0.4-0.7-0.4-1.1c0,0-0.3-3.2-0.1-4.1c0-0.2,0.2-0.4,0.2-0.4s1.6,0.2,2.9,0.2
				c1.6,0,3.4-0.2,3.6-0.4l0,0c0.2-0.2,0.2-0.4,0-0.6c0,0-0.6-0.8-1.5-1.2c-0.1,0-0.1,0-0.2,0c-0.5,0-1-0.1-1.5-0.2
				c-0.4-0.1-0.9,0-1,0.1l-2.6,0.6c-0.2,0.1-0.4,0.2-0.6,0.4l-0.5,0.6c-0.1,0.2-0.2,0.4-0.1,0.5c0.3,1.4,0.5,2.9,0.5,4.4l0,0.4
				c0,0.4,0.1,0.7,0.2,1c0,0-1.9-0.6-2.2-1.6c-1.1-4.1-1.1-4.3-1.1-4.3c0,0-0.6,0-0.5,1.3c0.1,0.8,0.6,4,0.6,4s-2.4-6-3.1-8.3
				c-0.5-1.7-0.8-7.5-0.8-7.5l-1.4,0.4c0,0,0.6,7.3,1.9,10.6c0.3,0.8,1.7,5.4,4.2,7.4c1.4,1.1,2.5,3.1,3.9,4
				c3.8,2.4,6.3,2.2,6.3,2.2s2.3-0.1,6.3-2.2c4.6-2.4,4.9-4.6,4.9-4.6s1.7-2.6,3-7c0.8-2.8,1.3-10.7,1.3-10.7L72.3,24.6z"/>
		</g>
		<path class="st29" d="M50.7,35.8c0,0,5.2,0.4,7,0.4s7-0.4,7-0.4l-0.5,0.8c-2.9,5.3-10.2,5.3-13.1,0L50.7,35.8z"/>
		<g>
			<path class="st17" d="M50.9,35.8c0,0,5.1,0.4,6.9,0.4s6.9-0.4,6.9-0.4l-0.4,0.8c-2.8,5-10,5-12.8,0L50.9,35.8z"/>
		</g>
		<path class="st30" d="M50.7,35.8c0,0,5.2,0.4,7,0.4s7-0.4,7-0.4v-0.1L57.8,36c-0.1,0-0.2,0-0.2,0l-6.9-0.3L50.7,35.8z"/>
		<path class="st6" d="M57.5,35.8"/>
		<path class="st6" d="M51.7,35.8"/>
		<g>
			<defs>
				<path id="cl_mask_1_" d="M50.8,35.8c0,0,5.1,0.4,6.9,0.4s6.9-0.4,6.9-0.4l-0.4,0.8c-2.8,5-10,5-12.8,0L50.8,35.8z"/>
			</defs>
			<clipPath id="cl_mask_2_">
				<use xlink:href="#cl_mask_1_"  style="overflow:visible;"/>
			</clipPath>
			<path class="st31" d="M57.8,39c-2.5,0-4.5-0.2-5.9-0.6c0,0-0.1,0-0.1,0c0,0,0,0,0,0v-0.3c0,0,0.1,0,0.2,0
				c1.4,0.4,3.3,0.6,5.8,0.6c4.2,0,5.7-0.6,5.8-0.6l0.1,0.2C63.6,38.4,62.1,39,57.8,39z"/>
			<path class="st32" d="M57.7,36.7c0,0-0.8,0.3-1.7,0c-1.4-0.5-3-0.3-3.4,0.5c-0.3,0.7,0.3,2.3,0.3,2.3l-2.5-1.6l0.2-2.2l2-0.3
				l5.2,0.4V36.7z"/>
			<path class="st33" d="M51.5,38.2c0,0-1-1.2,0.3-1.8c1.2-0.5,5.9,0,5.9,0v-0.2l-6-0.5l-0.9,0l-0.2,1.7L51.5,38.2z"/>
			<path class="st32" d="M57.7,36.7c0,0,0.8,0.3,1.7,0c1.4-0.5,3-0.3,3.4,0.5c0.3,0.7-0.3,2.3-0.3,2.3l2.5-1.6l-0.2-2.2l-2-0.3
				l-5.2,0.4V36.7z"/>
			<path class="st33" d="M63.9,38.2c0,0,1-1.2-0.3-1.8c-1.2-0.5-5.9,0-5.9,0v-0.2l6-0.5l1,0.1l0.2,1.7L63.9,38.2z"/>
		</g>
		<path class="st34" d="M57.7,41.9c1.1,0,2.2-0.3,2.1-0.2c-0.4,0.4-1,1-1.2,1.2c0,0-0.1,0.1-0.1,0.2c-0.3,0.5-1.1,0.5-1.4,0
			C57,43,56.9,43,56.9,42.9c-0.2-0.3-0.8-0.9-1.2-1.3C55.5,41.5,56.7,41.9,57.7,41.9z"/>
		<path class="st8" d="M42.2,29.8L41,26c0,0,0.1-1.2-0.2-1.7c0,0-0.2-0.5-0.6-0.5c-0.3,0-0.8,0.3-1,0.4c-0.7,0.3-0.7-0.6-0.7-0.6
			l0.1-0.5l0.7-0.5l1.2,0.3l1,1.9L42.2,29.8z"/>
		<path class="st13" d="M41.3,24.8c0-0.1-0.8-1.7-1.6-1.9c-1.5-0.4-1.3,2-1.3,2s-0.2-1.4,0.1-1.9c0.3-0.6,1.4-0.9,2.1,0.3
			c0.2,0.3,0.4,0.7,0.5,0.9C41.4,24.5,41.3,24.8,41.3,24.8z"/>
		<path class="st11" d="M39.2,22.4"/>
		<path class="st8" d="M40.4,29.5c0,0-1.1-0.7-0.9-2.2c0.1-0.9,0-1.9,0-1.9l-0.3,0.6c-0.3,0.6-0.3,1.3-0.2,2v0c0,0,0,0.5,0.5,1
			C39.9,29.2,40.4,29.5,40.4,29.5z"/>
		<path class="st8" d="M41.9,32.1c0,0-0.5-0.4-0.5-0.7c0-0.7-0.1-0.7-0.1-0.7s-0.2,0.3-0.2,0.5c-0.1,0.2,0,0.4,0,0.4
			s0.2,0.2,0.4,0.3C41.7,32,41.9,32.1,41.9,32.1z"/>
	</g>
	<g id="jacket_2_">
		<g>
			<path class="st3" d="M73.8,50.1c0,0,9.4,4.8,17.9,11.6c2.6,2.1,5.5,6.5,5.5,6.5s4.9,18.6,6.2,29.5c1.3,10.4,1.5,20.1,1.6,23.5
				c0,0.9-0.1,1.8-0.3,2.6c-0.8,3-3.2,10.5-7.3,18.6c-8,15.9-11.5,17.8-11.5,17.8s-2.8-4.1-6-5.9c-3.2-1.8-7.9-2-7.9-2l3.3-7.3
				l-19.9-22.5l4.4-38l10.6-26.8L73.8,50.1z"/>
			<path class="st1" d="M85.9,160.7l-0.1-0.2c0,0-2.8-4.1-6-5.9c-3.1-1.8-7.7-2-7.8-2l-0.4,0l3.4-7.5l-19.9-22.4l0-0.1l4.4-38.1
				l10.6-26.8l3.6-7.9l0.2,0.1c0.1,0.1,8.6,4.3,16.9,11.2c0.9,0.7,2.1,1.5,2.9,2.4c2,2.2,3.6,4.5,3.7,4.6c0.1,0.2,4.9,18.8,6.2,29.6
				c1.2,10.3,1.5,19.9,1.6,23.5c0,0.9-0.1,1.8-0.4,2.7c-0.8,2.9-3.2,10.5-7.3,18.7c-8,15.8-11.4,17.8-11.6,17.9L85.9,160.7z
				 M72.4,152.2c1.2,0.1,4.9,0.5,7.6,2c2.9,1.6,5.4,4.9,6,5.8c0.8-0.6,4.3-4,11.2-17.6c4.1-8.1,6.4-15.7,7.2-18.6
				c0.2-0.8,0.3-1.7,0.3-2.6c-0.1-3.6-0.4-13.2-1.6-23.5C101.9,87.1,97,68.5,97,68.4l0,0c0,0-2.4-4.3-5.4-6.4
				c-8-5.6-16.2-10.6-17.7-11.5l-3.3,7.4L60,84.7l-4.4,37.9l20,22.5L72.4,152.2z"/>
		</g>
		<g>
			<path class="st17" d="M45.2,49.6c0,0,0,9.4,9.9,10C65.7,60.3,69.8,51,69.8,51l-14.4,64.3L71,144.9c0,0-1.8,2.5-17.7,5.2
				c-9.2,1.6-19.6-1.6-19.6-1.6s0.9-10.3,1-14c0.1-6.4,0-23.9,0-30.3c0-1.8,0-3.5,0.1-5.3c0.4-6.9,1.7-24.3,4.4-33.2
				C40.4,61.8,45.2,49.6,45.2,49.6z"/>
			<path class="st1" d="M47.9,150.9c-7.4,0-14.1-2.1-14.2-2.1l-0.2-0.1l0-0.2c0-0.1,0.9-10.3,1-14c0.1-6.3,0-23.3,0-30.3
				c0-1.8,0-3.6,0.1-5.3c0.4-7.1,1.8-24.4,4.5-33.3c1.1-3.7,5.8-15.9,5.9-16l0.5-1.2l0,1.3c0,0.4,0.1,9.1,9.7,9.7
				C65.4,60,69.5,51,69.6,50.9l0.5,0.2l-14.4,64.2L71.3,145l-0.1,0.1c-0.1,0.1-2,2.6-17.9,5.3C51.6,150.8,49.7,150.9,47.9,150.9z
				 M34,148.4c1.5,0.4,11,3,19.3,1.6c13.7-2.4,16.9-4.6,17.4-5l-15.6-29.6l0-0.1l14-62.6c-1.7,2.6-6.1,7.8-14.1,7.2
				c-8-0.5-9.7-6.6-10-9.1c-1.2,3-4.6,11.9-5.5,15c-2.7,8.8-4,26.2-4.4,33.2c-0.1,1.8-0.2,3.5-0.1,5.3c0.1,7,0.2,24,0,30.3
				C34.9,138,34.1,146.9,34,148.4z"/>
		</g>
		<path class="st0" d="M33.7,148.5c0,0,1.5-9.4,2.6-50.9c0.2-7.8,1.3-14.5,3.2-26.1c1.7-10.3,5.5-21,5.5-21L33.4,75.8l-4.2,69.1
			L33.7,148.5z"/>
		<path class="st0" d="M55.4,115.3c0,0,0,13.2,2.1,21.8c1.7,7,5.9,10.7,5.9,10.7s2.3-0.6,3.6-1.1c2.7-1,3.6-1.7,3.6-1.7L55.4,115.3z
			"/>
		<g>
			<path class="st3" d="M19.3,145.2c0,0-3.8-13.6-4.5-18.3c-1.2-8.6,0.4-16,0.4-16s3.1-21.8,4.8-30.6c1.3-6.5,4.3-14.5,4.3-14.5
				l1.9,49v17.2L19.3,145.2z"/>
			<path class="st1" d="M19.2,145.9l-0.2-0.6c0-0.1-3.8-13.7-4.5-18.3c-1.2-8.5,0.4-16,0.4-16.1c0-0.2,3.1-21.9,4.8-30.6
				c1.2-6.4,4.3-14.5,4.3-14.6l0.4-1.1l2,50.2l0,17.3L19.2,145.9z M24.2,67.1c-0.9,2.5-2.9,8.4-3.9,13.3c-1.7,8.7-4.8,30.3-4.8,30.6
				c0,0.1-1.6,7.5-0.4,15.9c0.6,4,3.6,15,4.3,17.7L26,132v-17.1L24.2,67.1z"/>
		</g>
		<g>
			<path class="st3" d="M97.2,68.3c0,0-5-2.2-10.9,3.3c-4.1,3.8-6,9.9-6.9,13.7c-0.4,2-0.4,4,0,5.9l5.9,28.5l-0.3,0.1
				c-0.9,0.2-1.5,1.2-1.2,2.1l0.7,2.4l-9.2,20.8c0,0-5.5,1.2-9.4-3.1c-10.8-11.9-10.6-19.3-10.6-19.3l2.5-26.9l9.6-28.9l6.3-16.8
				c0,0,7.8,4,17.7,11.9C94.1,64.1,97.2,68.3,97.2,68.3z"/>
			<path class="st1" d="M73.6,145.5c-2,0-5.3-0.5-7.9-3.4c-10.7-11.9-10.7-19.2-10.6-19.5l2.5-26.9l9.6-28.9l6.4-17l0.3,0.1
				c0.1,0,7.9,4.1,17.7,11.9c2.6,2.1,5.7,6.2,5.8,6.3l-0.3,0.4c0,0-4.9-2-10.7,3.2c-4.2,3.8-6,10.2-6.8,13.6c-0.4,1.9-0.4,3.9,0,5.8
				l5.9,28.7l-0.5,0.1c-0.4,0.1-0.7,0.3-0.9,0.7s-0.2,0.7-0.1,1.1l0.7,2.5l-9.3,21l-0.1,0C75.4,145.3,74.7,145.5,73.6,145.5z
				 M73.9,50.5L67.8,67l-9.6,28.9l-2.5,26.8c0,0.1,0,7.5,10.5,19.1c3.4,3.8,8.2,3.2,9,3.1l9.1-20.6l-0.7-2.3
				c-0.2-0.5-0.1-1.1,0.2-1.5s0.7-0.8,1.2-0.9l0.1,0l-5.8-28.3c-0.4-2-0.4-4.1,0-6c0.8-3.5,2.7-10,6.9-13.9c4.7-4.3,8.8-4,10.4-3.6
				c-0.8-1-2.3-2.9-3.9-4.4c-0.5-0.4-0.9-0.9-1.4-1.2C82.5,55.2,75.3,51.2,73.9,50.5z"/>
		</g>
		<path class="st35" d="M84.3,123.9c-0.2-0.7-0.5-1.2-0.7-1.9c-0.2-0.6,0-1.3,0.4-1.7c0.4-0.4,0.7-0.4,1.3-0.5l0,0l-5.9-34.4
			c0,0-0.8,5.9-0.4,14.1c0.4,7.9,1.9,18.1,1.2,22.5c-1.6,9.6-9,22.7-9,22.7s1.5,0.3,2.1,0.3c0.5,0,1.9,0,1.9,0l8.9-20.4L84.3,123.9
			C84.3,123.9,84.3,123.9,84.3,123.9z"/>
		<path class="st35" d="M19.3,145.2c0,0-0.5-4.8,0.6-12.4c0.5-3.4,1.9-13.2,2.1-15.3c0.9-9.8-0.2-29.3-0.2-29.3l6.2,27l-5.8,30H19.3
			z"/>
		<g>
			<path class="st3" d="M45.6,48.5c0,0-6.4,3.3-11.8,7.5c-3.4,2.6-6.9,6.4-8.4,8.1c-0.5,0.5-0.8,1.2-0.9,1.9
				c-0.7,3.2-2.7,13.1-2.8,17.5c-0.1,5.9,2.1,25.7,2.1,25.7s1.1,10.4,1,12.3c-0.3,4.1-2.6,11.6-2.6,11.6s-2.3,8.8-2.8,11.4
				c-0.6,3.4-1.3,12.2-1.3,12.2s8.9,0.4,11.1-0.3c4.4-1.4,4.5-7.7,4.5-7.7s0.7-7.9,0.8-10.6c0.2-6.2,0.3-25,0.3-25
				s-0.6-10.4,0.8-26.3c0.9-10.5,3.4-20.8,3.9-22.1C41.8,59,45.6,48.5,45.6,48.5z"/>
			<path class="st1" d="M23.5,156.9c-2.7,0-5.2-0.1-5.4-0.1l-0.3,0l0-0.3c0-0.1,0.7-8.9,1.3-12.2c0.4-2.5,2.7-11.3,2.8-11.4
				c0-0.1,2.3-7.5,2.6-11.5c0.1-1.8-1-12.2-1-12.3c0-0.2-2.2-19.9-2.1-25.7c0.1-4.4,2.1-14.5,2.8-17.5c0.2-0.7,0.5-1.4,1-2
				c1.4-1.6,5.1-5.5,8.5-8.1c5.4-4.1,11.8-7.5,11.9-7.5l0.3-0.5l-0.2,0.7c0,0.1-3.5,10.7-5.8,16.2c-0.5,1.2-3,11.5-3.9,22.1
				c-1.4,15.7-0.8,26.1-0.7,26.2c0,0.2-0.1,18.9-0.3,25c-0.1,2.6-0.8,10.5-0.8,10.6c0,0.2-0.2,6.4-4.7,7.9
				C28.3,156.8,25.9,156.9,23.5,156.9z M18.4,156.3c1.5,0.1,8.8,0.3,10.8-0.3c4.2-1.4,4.4-7.4,4.4-7.4c0-0.1,0.7-8,0.8-10.6
				c0.2-6.2,0.3-24.8,0.3-25c0-0.1-0.6-10.6,0.8-26.3c0.9-10.1,3.3-20.7,4-22.2c1.9-4.7,5-13.1,5.8-15.4c-1.7,0.9-6.8,3.8-11.2,7.2
				c-3.4,2.6-7,6.5-8.4,8c-0.5,0.5-0.8,1.1-0.9,1.7c-0.6,3-2.7,13.1-2.8,17.4C21.7,89.2,24,108.8,24,109c0,0.4,1.1,10.5,1,12.4
				c-0.3,4.1-2.5,11.5-2.6,11.6c0,0.1-2.3,8.9-2.7,11.3C19.1,147.4,18.5,154.8,18.4,156.3z"/>
		</g>
		<g>
			<path class="st3" d="M45.5,48.5c0,0-7.8,5.5-10.1,7.6c-1.4,1.2-4.2,4.6-5.7,6.4c-0.6,0.7-0.7,1.7-0.2,2.6l1.9,3.6l8.1-4.1
				L45.5,48.5z"/>
			<path class="st1" d="M31.3,69l-2.1-3.8c-0.5-0.9-0.4-2,0.3-2.8c1.5-1.9,4.4-5.2,5.7-6.4c2.3-2.1,10.1-7.6,10.2-7.6l0.3-0.5
				l-6,16.9L31.3,69z M45.1,49.2c-1.9,1.4-7.6,5.4-9.5,7.1c-1.3,1.2-4.1,4.5-5.7,6.3c-0.5,0.6-0.6,1.5-0.2,2.3l1.8,3.4l7.8-3.9
				L45.1,49.2z"/>
		</g>
		<g>
			<path class="st3" d="M39.5,64.6c0,0-5,2.6-6.5,3.3c-1.5,0.7-3.3,2-4.6,3.1c-0.9,0.7-1.3,1.9-1.1,3.1l7.5,43.9
				c0,0,0.1-23,0.7-29.9C36.1,81.6,39.5,64.6,39.5,64.6z"/>
			<path class="st1" d="M34.6,117.9L27.1,74c-0.2-1.2,0.3-2.5,1.2-3.3c1.3-1.1,3.1-2.4,4.6-3.1c1.5-0.7,6.5-3.2,6.5-3.3l0.5-0.2
				l-0.1,0.5c0,0.2-3.5,17.1-4,23.4c-0.6,6.8-0.7,29.6-0.7,29.9L34.6,117.9z M39.2,65c-1.3,0.7-4.8,2.5-6.1,3c-1.5,0.6-3.3,2-4.5,3
				c-0.8,0.7-1.2,1.8-1,2.8l7,41.1c0-6.4,0.2-21.7,0.7-27.1C35.8,82.2,38.6,67.9,39.2,65z"/>
		</g>
		<path class="st1" d="M76,125.6l-0.2-0.5c0.1-0.1,3.6-1.3,6.4-1.3c0,0,0,0,0,0c0.5,0,1.4,0.1,1.9,0.2l-0.2-0.8
			c0-0.1-0.4-1.6-0.4-2.3c0-0.7,1-1.2,1.4-1.3c-0.5-2.4-5.1-23.8-6.1-30.7c-0.3-1.8,0.7-5.4,0.8-5.5l0.5,0.1c0,0-1,3.7-0.8,5.3
			c1.1,7.2,6.1,30.6,6.2,30.9l0,0.2l-0.2,0.1c-0.4,0.1-1.3,0.6-1.3,1c0,0.6,0.3,2.2,0.3,2.2l0.4,1.5l-0.4-0.1c0,0-1.6-0.2-2.2-0.2
			c0,0,0,0,0,0C79.5,124.3,76.1,125.6,76,125.6z"/>
		<g>
			<path class="st3" d="M69.6,46.6c0,0,1.7,0.8,2.6,1.6c0.4,0.3,0.8,0.8,1.2,1.3c0.5,0.6,0.8,1.4,0.9,2.1c0.3,1.8,0.8,5.6,0.8,9.1
				c0,2.3-0.7,8.3-0.9,10.4c0,0.4-0.4,0.8-0.8,0.8L68,73l4,4.9c0.7,0.9,0.7,2.2,0,3.1c-2,2.6-6.2,8.5-9.7,16.5
				c-4.2,9.6-7,25.1-7,25.1s-2.3-7.3-2-12.9c0.3-5.2,1.6-18.5,4.8-31.1c2.4-9.4,6-15.5,9.9-22.8C70.7,51,69.6,46.6,69.6,46.6z"/>
			<path class="st1" d="M55.4,123.7l-0.3-1c0-0.1-2.4-7.4-2-13c0.3-5.7,1.7-18.7,4.8-31.1c2.2-8.7,5.3-14.5,9-21.1l1-1.8
				c2.5-4.7,1.5-9,1.5-9l-0.1-0.5l0.5,0.2c0.1,0,1.7,0.9,2.7,1.6c0.3,0.3,0.7,0.7,1.2,1.4c0.5,0.7,0.8,1.4,1,2.3
				c0.3,1.9,0.8,5.7,0.8,9.1c0,2.4-0.7,8.6-0.9,10.4c-0.1,0.5-0.5,1-1,1.1l-5,0.9l3.7,4.6c0.8,1,0.8,2.4,0,3.4
				c-2.1,2.8-6.2,8.6-9.7,16.5c-4.1,9.4-7,24.9-7,25.1L55.4,123.7z M70,47.1c0.2,1.3,0.5,4.9-1.6,8.8l-1,1.8c-3.6,6.6-6.8,12.4-9,21
				c-3.1,12.4-4.5,25.7-4.8,31c-0.2,4.3,1.1,9.7,1.7,11.9c0.7-3.6,3.3-16.1,6.8-24.2c3.5-7.9,7.6-13.8,9.7-16.6c0.6-0.8,0.6-2,0-2.8
				l-4.3-5.3l5.8-1c0.3-0.1,0.5-0.3,0.6-0.6c0.2-1.8,0.9-8,0.9-10.4c0-3.4-0.5-7.2-0.8-9.1c-0.1-0.7-0.4-1.4-0.9-2
				c-0.4-0.6-0.8-1-1.1-1.3C71.5,47.9,70.5,47.4,70,47.1z"/>
		</g>
	</g>
	<path class="st36" d="M33.2,288.7l-4.6-2l1.1-2.7c0.3-0.7,0.6-1.4,1-2l1.7-2.7c0.2-0.4,0.3-0.8,0.3-1.2l-0.4-25.5l-0.8-15.3
		c-0.2-0.9-0.7-2.8-0.8-3.8c-0.1-0.8,0.1-2.6,0.2-3.6c-0.2-1.4-1.2-7.3-1.9-13.5c-0.2-1.3-0.3-2.5-0.5-3.7c-0.5-3.9-1-8-1.3-13.1
		c-0.4-7.6-1.6-14.8-2.6-20.5c-0.5-3.1-1-5.8-1.2-7.9c-0.4-4.3-0.8-13.5-0.9-13.9l5-0.2c0,0.1,0.4,9.5,0.8,13.7
		c0.2,1.9,0.6,4.5,1.2,7.6c1,5.9,2.3,13.2,2.7,21.1c0.2,5,0.8,8.9,1.3,12.7c0.2,1.2,0.3,2.5,0.5,3.8c0.8,7,1.9,13.5,1.9,13.6
		l0.1,0.3c0,0,1.6,1.6,2.3,2c0.8,0.4,3.9,0.9,3.9,0.9s-3.1,0.7-3.8,0.7c-0.9,0-2.8-0.7-2.8-0.7s0.6,2.6,0.9,3.8l0.1,0.3l0.8,15.9
		l0.4,25.6c0,1.4-0.3,2.7-1.1,3.9l-1.7,2.7c-0.3,0.4-0.5,0.9-0.7,1.4L33.2,288.7z"/>
	<path class="st37" d="M54.8,174.8"/>
	<path class="st36" d="M69.6,294.2c-2.5,3.4-3.1-0.4-3.1-0.4l1.2-2c0-2.7-1.7-28.5-2.7-50c-0.1-2.3-0.6-4.5,0.3-6.7l0.8-1.3
		c0.4-1.1,0.6-1.9,0.4-3c0,0-3.1-36.4-5.1-48.5c-0.9-5.7-4.5-6.9-4.5-6.9h1.8c3,0,5.5,2.2,5.9,5.2l6.8,49.7c0.3,1.8,0.1,3.6-0.6,5.3
		l-0.3,0.9c-0.6,1.7-0.9,3.5-0.8,5.4c1.4,31.1,1.8,43,2,47.6c1.7-0.5,3.9-1.2,6.4-1.6c4.3-0.7,11.4,1.3,11.6,1.4
		c0,0,0.6,1.4,0.7,1.9c0.1,0.6,0.2,2.4,0.2,2.4c-1.5-0.5-9-2.3-11.8-1.8c-2.8,0.5-5.4,1.3-6.9,1.8C70.8,293.9,70.2,294.2,69.6,294.2
		z"/>
	<path class="st11" d="M77.7,161l3.9-4.5l0.3-0.3c0,0,0.9,0.9,1.3,1.3c0.3,0.3,1.1,1.3,1.1,1.3l-4.6,6.3c0,0-0.8-1.4-1-1.8
		c-0.3-0.5-1.3-1.9-1.3-1.9L77.7,161z"/>
	<g>
		<path class="st3" d="M64.1,147.9l0.9,5.6c0.1,0.3-0.2,0.6-0.5,0.7l-1.3,0.3c-0.4,0.1-0.8-0.1-0.9-0.5l-0.9-5.4L64.1,147.9z"/>
		<path class="st1" d="M63,154.7c-0.2,0-0.4-0.1-0.5-0.2c-0.2-0.1-0.3-0.3-0.4-0.6l-0.9-5.6l3.1-0.8l0.9,5.8c0.1,0.4-0.2,0.9-0.7,1
			l-1.3,0.3C63.2,154.7,63.1,154.7,63,154.7z M61.8,148.7l0.8,5.2c0,0.1,0.1,0.2,0.2,0.2c0.1,0.1,0.3,0.1,0.4,0.1l1.3-0.3
			c0.2-0.1,0.3-0.2,0.3-0.4l-0.9-5.3L61.8,148.7z"/>
	</g>
	<path class="st38" d="M74.9,21.7"/>
</g>
</svg>
